<svg xmlns="http://www.w3.org/2000/svg" width="65" height="87" viewBox="0 0 65 87">
  <defs>
    <linearGradient id="fire-marker-a" x1="50%" x2="50%" y1="0%" y2="100%">
      <stop offset="0%" stop-color="#6552A2"/>
      <stop offset="24.501%" stop-color="#E43A44"/>
      <stop offset="100%" stop-color="#FEBE49"/>
    </linearGradient>
  </defs>
  <g fill="none" fill-rule="evenodd" transform="translate(-.416 .016)">
    <circle cx="32.234" cy="32.878" r="21.461" fill="#FFF"/>
    <path fill="#000" d="M27.4506015,46.292317 C25.6575147,42.561264 26.6123984,40.4233315 27.9905201,38.4090916 C29.4996993,36.203209 29.8886344,34.0196738 29.8886344,34.0196738 C29.8886344,34.0196738 31.0750126,35.5619453 30.600421,37.9740997 C32.6963323,35.6409935 33.0918757,31.9237625 32.7753804,30.5001389 C37.5129229,33.8108797 39.5376555,40.9795441 36.8090058,46.292317 C51.3219354,38.0809938 40.4189895,25.7943267 38.5208248,24.4103029 C39.1535632,25.7942763 39.2735731,28.1372194 37.995384,29.2742618 C35.8316739,21.069547 30.4818235,19.3880458 30.4818235,19.3880458 C31.1145619,23.6192664 28.1882666,28.2460809 25.366444,31.7033155 C25.2673185,30.016114 25.1619882,28.8518813 24.274752,27.2373214 C24.075593,30.3022915 21.7332553,32.8007078 21.0989531,35.8716305 C20.2397646,40.0303608 21.7425373,43.0753545 27.4506015,46.292317 Z"/>
    <path fill="url(#fire-marker-a)" fill-rule="nonzero" d="M32.4689828,0.907857669 C14.7650488,0.907857669 0.410312483,15.262594 0.410312483,32.966528 C0.410312483,40.1776365 2.78958364,46.8254653 6.80777515,52.1844635 L32.469159,86.3975864 L58.1303666,52.1844635 C62.1489105,46.8254653 64.5278293,40.1778127 64.5278293,32.966528 C64.5278293,15.262594 50.173093,0.907857669 32.4689828,0.907857669 Z M32.4689828,54.3387399 C20.6661839,54.3387399 11.0967708,44.7696792 11.0967708,32.966528 C11.0967708,21.1637291 20.6661839,11.5939636 32.4689828,11.5939636 C44.272134,11.5939636 53.8411947,21.1637291 53.8411947,32.966528 C53.8411947,44.7698554 44.2723102,54.3387399 32.4689828,54.3387399 Z"/>
  </g>
</svg>
