<svg xmlns="http://www.w3.org/2000/svg" width="108" height="32" viewBox="0 0 108 32">
  <defs>
    <linearGradient id="get_it_on_google_play-a" x1="91.49%" x2="-38.317%" y1="4.96%" y2="71.909%">
      <stop offset="0%" stop-color="#00A0FF"/>
      <stop offset=".66%" stop-color="#00A1FF"/>
      <stop offset="26.01%" stop-color="#00BEFF"/>
      <stop offset="51.22%" stop-color="#00D2FF"/>
      <stop offset="76.04%" stop-color="#00DFFF"/>
      <stop offset="100%" stop-color="#00E3FF"/>
    </linearGradient>
    <linearGradient id="get_it_on_google_play-b" x1="107.586%" x2="-130.492%" y1="50.016%" y2="50.016%">
      <stop offset="0%" stop-color="#FFE000"/>
      <stop offset="40.87%" stop-color="#FFBD00"/>
      <stop offset="77.54%" stop-color="orange"/>
      <stop offset="100%" stop-color="#FF9C00"/>
    </linearGradient>
    <linearGradient id="get_it_on_google_play-c" x1="86.238%" x2="-50.131%" y1="117.851%" y2="294.785%">
      <stop offset="0%" stop-color="#FF3A44"/>
      <stop offset="100%" stop-color="#C31162"/>
    </linearGradient>
    <linearGradient id="get_it_on_google_play-d" x1="-18.801%" x2="42.094%" y1="-154.171%" y2="-75.137%">
      <stop offset="0%" stop-color="#32A071"/>
      <stop offset="6.85%" stop-color="#2DA771"/>
      <stop offset="47.62%" stop-color="#15CF74"/>
      <stop offset="80.09%" stop-color="#06E775"/>
      <stop offset="100%" stop-color="#00F076"/>
    </linearGradient>
  </defs>
  <g fill="none" fill-rule="evenodd" transform="matrix(1 0 0 -1 .54 32.17)">
    <path fill="#000" d="M102.808361,0.71567748 L3.97231242,0.71567748 C1.79890772,0.71567748 0.0188704944,2.47500448 0.0188704944,4.62312223 L0.0188704944,28.0677907 C0.0188704944,30.2159085 1.79890772,31.9752355 3.97231242,31.9752355 L102.808361,31.9752355 C104.981765,31.9752355 106.761803,30.2159085 106.761803,28.0677907 L106.761803,4.62312223 C106.761803,2.47500448 104.981765,0.71567748 102.808361,0.71567748 Z"/>
    <path d="M102.808361,31.3490675 C104.638804,31.3490675 106.128263,29.8769377 106.128263,28.0677907 L106.128263,4.62312223 C106.128263,2.81397531 104.638804,1.3418455 102.808361,1.3418455 L3.97231242,1.3418455 C2.14186881,1.3418455 0.652409563,2.81397531 0.652409563,4.62312223 L0.652409563,28.0677907 C0.652409563,29.8769377 2.14186881,31.3490675 3.97231242,31.3490675 L102.808361,31.3490675 Z M102.808361,31.9752355 L3.97231242,31.9752355 C1.79890772,31.9752355 0.0188704944,30.2159085 0.0188704944,28.0677907 L0.0188704944,4.62312223 C0.0188704944,2.47500448 1.79890772,0.71567748 3.97231242,0.71567748 L102.808361,0.71567748 C104.981765,0.71567748 106.761803,2.47500448 106.761803,4.62312223 L106.761803,28.0677907 C106.761803,30.2159085 104.981765,31.9752355 102.808361,31.9752355 Z"/>
    <path fill="#FFF" stroke="#FFF" stroke-width=".625" d="M4.87657062,3.1210715 C4.87657062,3.77361477 4.67889852,4.2962355 4.28948449,4.68600312 C3.84175719,5.14805846 3.25862451,5.38055142 2.54403988,5.38055142 C1.86108279,5.38055142 1.2779501,5.14415102 0.79958363,4.67818823 C0.320228796,4.20538741 0.0810455595,3.62513187 0.0810455595,2.93058356 C0.0810455595,2.23603526 0.320228796,1.65577971 0.79958363,1.18688634 C1.2779501,0.717016112 1.86108279,0.480615704 2.54403988,0.480615704 C2.88403589,0.480615704 3.20821812,0.549972849 3.51757495,0.678918526 C3.82594342,0.808841064 4.07698699,0.984676077 4.25884532,1.20153926 L3.84571063,1.61377468 C3.52844692,1.24354429 3.09653339,1.06087125 2.54403988,1.06087125 C2.0459062,1.06087125 1.61399267,1.23279882 1.24731093,1.57958454 C0.884582631,1.92734712 0.702724302,2.37768013 0.702724302,2.93058356 C0.702724302,3.483487 0.884582631,3.93772745 1.24731093,4.28549003 C1.61399267,4.62836831 2.0459062,4.80420332 2.54403988,4.80420332 C3.07281274,4.80420332 3.51757495,4.62836831 3.86844292,4.28158259 C4.09971928,4.05202021 4.23117122,3.73551718 4.26576384,3.33109665 L2.54403988,3.33109665 L2.54403988,2.76647088 L4.84098964,2.76647088 C4.86866373,2.88857853 4.87657062,3.00677874 4.87657062,3.1210715 Z" transform="matrix(1 0 0 -1 32.635 27.09)"/>
    <polygon fill="#FFF" stroke="#FFF" stroke-width=".625" points="3.579 1.163 1.421 1.163 1.421 2.648 3.366 2.648 3.366 3.213 1.421 3.213 1.421 4.698 3.579 4.698 3.579 5.273 .81 5.273 .81 .588 3.579 .588" transform="matrix(1 0 0 -1 37.577 27.09)"/>
    <polygon fill="#FFF" stroke="#FFF" stroke-width=".625" points="2.197 5.273 1.586 5.273 1.586 1.163 .263 1.163 .263 .588 3.522 .588 3.522 1.163 2.197 1.163 2.197 5.273" transform="matrix(1 0 0 -1 41.53 27.09)"/>
    <polygon fill="#FFF" stroke="#FFF" stroke-width=".625" points=".938 5.273 .938 .588 1.548 .588 1.548 5.273" transform="matrix(1 0 0 -1 46.472 27.09)"/>
    <polygon fill="#FFF" stroke="#FFF" stroke-width=".625" points="2.274 5.273 1.668 5.273 1.668 1.163 .34 1.163 .34 .588 3.603 .588 3.603 1.163 2.274 1.163" transform="matrix(1 0 0 -1 48.449 27.09)"/>
    <path fill="#FFF" fill-rule="nonzero" stroke="#FFF" stroke-width=".625" d="M4.83011767,4.67037334 C4.36262317,5.14415102 3.78344392,5.38055142 3.09257995,5.38055142 C2.39776253,5.38055142 1.81858329,5.14415102 1.35108878,4.67037334 C0.884582631,4.19757252 0.652317918,3.61731698 0.652317918,2.93058356 C0.652317918,2.24385015 0.884582631,1.6635946 1.35108878,1.19079379 C1.81858329,0.717016112 2.39776253,0.480615704 3.09257995,0.480615704 C3.77949048,0.480615704 4.35866972,0.717016112 4.82616423,1.19470123 C5.29662382,1.67140949 5.52888853,2.24775759 5.52888853,2.93058356 C5.52888853,3.61731698 5.29662382,4.19757252 4.83011767,4.67037334 Z M1.80276952,4.27767514 C2.15462585,4.62836831 2.58258594,4.80420332 3.09257995,4.80420332 C3.59862051,4.80420332 4.03053404,4.62836831 4.37843693,4.27767514 C4.7293049,3.92698198 4.90720979,3.47664897 4.90720979,2.93058356 C4.90720979,2.38451816 4.7293049,1.93418515 4.37843693,1.58349199 C4.03053404,1.23279882 3.59862051,1.05696381 3.09257995,1.05696381 C2.58258594,1.05696381 2.15462585,1.23279882 1.80276952,1.58349199 C1.45190155,1.93418515 1.27399666,2.38451816 1.27399666,2.93058356 C1.27399666,3.47664897 1.45190155,3.92698198 1.80276952,4.27767514 Z" transform="matrix(1 0 0 -1 53.39 27.09)"/>
    <polygon fill="#FFF" stroke="#FFF" stroke-width=".625" points=".456 5.273 .456 .588 1.197 .588 3.502 4.232 3.528 4.232 3.502 3.331 3.502 .588 4.112 .588 4.112 5.273 3.475 5.273 1.061 1.45 1.035 1.45 1.061 2.354 1.061 5.273 .456 5.273" transform="matrix(1 0 0 -1 59.32 27.09)"/>
    <path fill="#FFF" fill-rule="nonzero" d="M53.8924236,14.9758971 C52.0352943,14.9758971 50.5181609,13.5789856 50.5181609,11.6516385 C50.5181609,9.73992113 52.0352943,8.32835672 53.8924236,8.32835672 C55.7535064,8.32835672 57.2706398,9.73992113 57.2706398,11.6516385 C57.2706398,13.5789856 55.7535064,14.9758971 53.8924236,14.9758971 Z M53.8924236,9.63735071 C52.873424,9.63735071 51.9967482,10.4686596 51.9967482,11.6516385 C51.9967482,12.8502472 52.873424,13.6669031 53.8924236,13.6669031 C54.9114233,13.6669031 55.7920525,12.8502472 55.7920525,11.6516385 C55.7920525,10.4686596 54.9114233,9.63735071 53.8924236,9.63735071 Z M46.5301264,14.9758971 C44.6690436,14.9758971 43.1558637,13.5789856 43.1558637,11.6516385 C43.1558637,9.73992113 44.6690436,8.32835672 46.5301264,8.32835672 C48.3902208,8.32835672 49.9043891,9.73992113 49.9043891,11.6516385 C49.9043891,13.5789856 48.3902208,14.9758971 46.5301264,14.9758971 Z M46.5301264,9.63735071 C45.5101384,9.63735071 44.6304976,10.4686596 44.6304976,11.6516385 C44.6304976,12.8502472 45.5101384,13.6669031 46.5301264,13.6669031 C47.5491261,13.6669031 48.4258018,12.8502472 48.4258018,11.6516385 C48.4258018,10.4686596 47.5491261,9.63735071 46.5301264,9.63735071 Z M37.7692991,13.9570309 L37.7692991,12.5444896 L41.1821078,12.5444896 C41.0822834,11.7551858 40.8154261,11.1749302 40.4062449,10.7705097 C39.9081112,10.2820791 39.1322482,9.73992113 37.7692991,9.73992113 C35.6690331,9.73992113 34.0244012,11.4152381 34.0244012,13.4910681 C34.0244012,15.5668981 35.6690331,17.2422151 37.7692991,17.2422151 C38.9049253,17.2422151 39.7311946,16.8036044 40.3410131,16.2350712 L41.3481524,17.2304927 C40.4951973,18.0354263 39.3605595,18.6537795 37.7692991,18.6537795 C34.8892166,18.6537795 32.4687218,16.3376416 32.4687218,13.4910681 C32.4687218,10.6444946 34.8892166,8.32835672 37.7692991,8.32835672 C39.3259668,8.32835672 40.4951973,8.83241709 41.4143725,9.77801872 C42.3562801,10.7089674 42.6498231,12.0179614 42.6498231,13.0749252 C42.6498231,13.4031506 42.6221491,13.7050007 42.572731,13.9570309 L37.7692991,13.9570309 Z M73.5934131,12.8619695 C73.3156838,13.6053609 72.4587753,14.9758971 70.7133307,14.9758971 C68.9836998,14.9758971 67.5436586,13.6288055 67.5436586,11.6516385 C67.5436586,9.78974105 68.9688744,8.32835672 70.8793752,8.32835672 C72.4241827,8.32835672 73.3156838,9.25930543 73.6823655,9.80146339 L72.5358674,10.5565771 C72.1533719,10.0036737 71.6325059,9.63735071 70.8793752,9.63735071 C70.1311863,9.63735071 69.5945066,9.97632154 69.2505571,10.6444946 L73.7485857,12.4839242 L73.5934131,12.8619695 Z M69.0074205,11.7551858 C68.9688744,13.0368276 70.0145598,13.6932784 70.763737,13.6932784 C71.3508232,13.6932784 71.8489569,13.4031506 72.0150014,12.9879846 L69.0074205,11.7551858 Z M65.351475,8.53056698 L66.8300623,8.53056698 L66.8300623,18.2991789 L65.351475,18.2991789 L65.351475,8.53056698 Z M62.9299919,14.2354363 L62.8805738,14.2354363 C62.5484847,14.6242271 61.9149457,14.9758971 61.1123969,14.9758971 C59.4282307,14.9758971 57.8883651,13.5145128 57.8883651,11.640893 C57.8883651,9.77801872 59.4282307,8.32835672 61.1123969,8.32835672 C61.9149457,8.32835672 62.5484847,8.68295733 62.8805738,9.08347041 L62.9299919,9.08347041 L62.9299919,8.60676216 C62.9299919,7.33586575 62.2430813,6.65303978 61.1351292,6.65303978 C60.2317678,6.65303978 59.6713674,7.29776816 59.440091,7.83992612 L58.154234,7.3094905 C58.5248692,6.42836171 59.5063112,5.34404579 61.1351292,5.34404579 C62.8687135,5.34404579 64.331487,6.35216653 64.331487,8.80506498 L64.331487,14.7736868 L62.9299919,14.7736868 L62.9299919,14.2354363 Z M61.2389071,9.63735071 C60.2199074,9.63735071 59.3669523,10.4803819 59.3669523,11.640893 C59.3669523,12.8121496 60.2199074,13.6669031 61.2389071,13.6669031 C62.2430813,13.6669031 63.0347581,12.8121496 63.0347581,11.640893 C63.0347581,10.4803819 62.2430813,9.63735071 61.2389071,9.63735071 Z M80.5158899,18.2991789 L76.9795361,18.2991789 L76.9795361,8.53056698 L78.45417,8.53056698 L78.45417,12.231894 L80.5158899,12.231894 C82.1536032,12.231894 83.759689,13.4031506 83.759689,15.2660249 C83.759689,17.1279223 82.1496498,18.2991789 80.5158899,18.2991789 Z M80.554436,13.5907079 L78.45417,13.5907079 L78.45417,16.9403649 L80.554436,16.9403649 C81.6554696,16.9403649 82.2840668,16.0367683 82.2840668,15.2660249 C82.2840668,14.5099343 81.6554696,13.5907079 80.554436,13.5907079 Z M89.6700847,14.9944575 C88.6046321,14.9944575 87.49668,14.5294715 87.0410458,13.498883 L88.3496351,12.956725 C88.6313178,13.498883 89.1492187,13.674718 89.6967704,13.674718 C90.4617614,13.674718 91.2376244,13.2204775 91.2494847,12.4184745 L91.2494847,12.3159041 C90.9826274,12.4682944 90.4113551,12.6939494 89.7086308,12.6939494 C88.2992287,12.6939494 86.8631409,11.9271133 86.8631409,10.4960117 C86.8631409,9.1870177 88.017546,8.3439865 89.3152633,8.3439865 C90.3075772,8.3439865 90.8551289,8.78650461 91.1990784,9.30131046 L91.2494847,9.30131046 L91.2494847,8.54619676 L92.6737122,8.54619676 L92.6737122,12.2934363 C92.6737122,14.0254112 91.3651229,14.9944575 89.6700847,14.9944575 Z M89.4921798,9.64125815 C89.0098599,9.64125815 88.3377748,9.87765856 88.3377748,10.4686596 C88.3377748,11.2247501 89.1759045,11.5148779 89.9013611,11.5148779 C90.5507139,11.5148779 90.8551289,11.373233 91.2494847,11.1866526 C91.1338466,10.2820791 90.3461233,9.64125815 89.4921798,9.64125815 Z M97.8626047,14.7805249 L96.1675665,10.5458316 L96.1171601,10.5458316 L94.364797,14.7805249 L92.774525,14.7805249 L95.4075173,8.86269979 L93.9052094,5.56970072 L95.4460634,5.56970072 L99.5032831,14.7805249 L97.8626047,14.7805249 Z M84.5701446,8.53056698 L86.0487319,8.53056698 L86.0487319,18.2991789 L84.5701446,18.2991789 L84.5701446,8.53056698 Z"/>
    <path fill="url(#get_it_on_google_play-a)" d="M1.33230993,20.4838022 C1.10004522,20.2434944 0.965628191,19.8693566 0.965628191,19.3848334 L0.965628191,2.10220528 C0.965628191,1.61768213 1.10004522,1.24354429 1.33230993,1.00323644 L1.38963484,0.950485936 L11.1882407,10.6311803 L11.1882407,10.8597658 L1.38963484,20.5404602 L1.33230993,20.4838022 Z" transform="translate(6.937 5.6)"/>
    <path fill="url(#get_it_on_google_play-b)" d="M3.5788533,0.564625767 L0.316275354,3.79315199 L0.316275354,4.02173751 L3.58280675,7.25026374 L3.65594542,7.2082587 L7.52438835,5.03278884 C8.628387,4.41541257 8.628387,3.39947693 7.52438835,2.77819322 L3.65594542,0.606630798 L3.5788533,0.564625767 Z" transform="translate(17.81 12.438)"/>
    <path fill="url(#get_it_on_google_play-c)" d="M13.5395502,7.44465911 L10.1998802,10.7454731 L0.343949448,1.00323644 C0.710631186,0.622260577 1.30858928,0.576348101 1.98858129,0.957323964 L13.5395502,7.44465911" transform="translate(7.926 5.6)"/>
    <path fill="url(#get_it_on_google_play-d)" d="M13.5395502,3.30081395 L1.98858129,9.7881491 C1.30858928,10.1652175 0.710631186,10.119305 0.343949448,9.73832918 L10.1998802,0 L13.5395502,3.30081395 Z" transform="translate(7.926 16.345)"/>
  </g>
</svg>
