<svg xmlns="http://www.w3.org/2000/svg" width="38" height="50" viewBox="0 0 38 50">
  <path fill="#C779A5" fill-rule="evenodd" d="M18.3200875,0.0577600086 C17.8491581,0.0630217899 17.4047768,0.276243519 17.1054531,0.640382704 C17.0630001,0.691804658 12.8218848,5.87059334 8.6409212,12.1166865 C2.90737335,20.6829861 0,27.1338104 0,31.2901393 C0,41.4016088 8.22643634,49.6281647 18.3380254,49.6281647 C28.4494949,49.6281647 36.6759313,41.4016088 36.6759313,31.2901393 C36.6759313,27.1338104 33.7685579,20.6828665 28.0347709,12.1166865 C23.8539269,5.87059334 19.6125724,0.691924244 19.5703585,0.640382704 C19.2711545,0.276123933 18.8264144,0.0630217899 18.355485,0.0577600086 L18.3200875,0.0577600086 Z M3.189357,31.2899001 C3.189357,24.7490276 13.1863827,10.7274567 18.338145,4.19734688 C23.490266,10.7268587 33.4866938,24.7461576 33.4866938,31.2901393 C33.4866938,35.6404366 31.6429178,39.5676388 28.6964399,42.3331833 C29.1127185,41.1740368 29.3408885,39.9260379 29.3408885,38.6253016 C29.3408885,37.0178275 28.6822092,34.9794851 27.3270613,32.3941567 C26.918197,31.6140976 25.9543343,31.313339 25.1742752,31.7219641 C24.3942161,32.1307089 24.0934575,33.0946911 24.5022022,33.8747502 C25.8654819,36.4756248 26.1515315,37.8934357 26.1515315,38.6251821 C26.1515315,40.7028682 25.33464,42.5925652 24.007236,43.9933949 C24.007236,43.9815559 24.0079536,43.969956 24.0079536,43.9577583 C24.0079536,41.3363149 20.6082449,37.0271552 19.5660534,35.7689915 C19.2630227,35.4032977 18.8129012,35.191511 18.3380254,35.191511 C17.8630301,35.191511 17.412789,35.4032977 17.1098778,35.7689915 C16.067806,37.0272747 12.6679777,41.3361953 12.6679777,43.9577583 C12.6679777,43.9695973 12.6686952,43.9814363 12.6689344,43.993634 C11.3412913,42.5924456 10.5243997,40.7031073 10.5243997,38.6249429 C10.5243997,35.6363707 14.9041152,29.0231487 18.3326441,24.6238211 C18.4436198,24.7669655 18.5605749,24.9186005 18.6821938,25.0776498 C19.2176996,25.7766296 20.2183947,25.9097287 20.9177333,25.3739837 C21.6169523,24.8385975 21.7498123,23.8377828 21.2143064,23.1384442 C20.2474541,21.8757363 19.5934386,21.0849144 19.5660534,21.0516695 C19.2630227,20.6858562 18.8129012,20.4743086 18.3380254,20.4743086 C17.8630301,20.4743086 17.412789,20.6860953 17.1097582,21.0516695 C16.1094219,22.2599659 7.33528192,33.0161232 7.33528192,38.6248233 C7.33528192,39.9255596 7.56333231,41.1734388 7.97973055,42.3327049 C5.03313301,39.5672801 3.189357,35.640317 3.189357,31.2899001 Z M15.8573347,43.9582366 C15.8573347,43.1882227 16.9954341,41.2370586 18.3368296,39.3914888 C19.6661469,41.2259371 20.8187161,43.1995834 20.8187161,43.9582366 C20.8187161,45.3260606 19.7058494,46.4391665 18.3377862,46.4391665 C16.9702014,46.4390469 15.8573347,45.3260606 15.8573347,43.9582366 Z M21.9399539,27.3109172 C21.6433808,27.6073707 21.4727316,28.0173113 21.4727316,28.4382538 C21.4728512,28.8575221 21.6433808,29.2690174 21.9399539,29.5657101 C22.236527,29.862044 22.6480223,30.0329323 23.0672906,30.0329323 C23.4883526,30.0329323 23.8980541,29.8624028 24.1963014,29.5657101 C24.4928745,29.2690174 24.6618495,28.8576417 24.6618495,28.4382538 C24.6618495,28.0189855 24.4928745,27.6073707 24.1963014,27.3109172 C23.8980541,27.0126699 23.486798,26.8435753 23.0672906,26.8435753 C22.6480223,26.8435753 22.2383208,27.0126699 21.9399539,27.3109172 Z" transform="translate(.612 -.027)"/>
</svg>
